<?xml version="1.0" standalone="no"?>
<!DOCTYPE svg PUBLIC "-//W3C//DTD SVG 20010904//EN"
 "http://www.w3.org/TR/2001/REC-SVG-20010904/DTD/svg10.dtd">
<svg version="1.0" xmlns="http://www.w3.org/2000/svg"
 width="1920.000000pt" height="1080.000000pt" viewBox="0 0 1920.000000 1080.000000"
 preserveAspectRatio="xMidYMid meet">

<g transform="translate(0.000000,1080.000000) scale(0.100000,-0.100000)"
fill="#000000" stroke="none">
<path d="M8079 8207 c-25 -7 -65 -24 -89 -38 l-42 -26 -73 18 c-111 26 -258
39 -449 39 -178 0 -850 -25 -964 -36 -165 -15 -317 -154 -353 -323 -7 -35 -4
-261 10 -812 12 -420 21 -798 21 -839 l-1 -75 -31 59 c-87 160 -264 276 -420
276 -49 0 -50 0 -45 28 34 184 39 244 33 392 -5 160 -19 246 -63 385 -119 380
-413 669 -771 760 -98 25 -192 35 -344 35 -154 0 -1205 -72 -1296 -90 -74 -14
-165 -65 -216 -121 -32 -36 -46 -45 -58 -38 -9 5 -62 21 -119 35 -90 22 -131
27 -304 31 -187 4 -233 1 -694 -46 l-495 -50 -72 -36 c-84 -41 -149 -106 -191
-192 -21 -45 -28 -74 -31 -142 -5 -112 250 -2692 274 -2766 45 -143 168 -249
320 -276 50 -9 98 -6 314 20 582 70 1717 188 2280 236 1254 106 2755 177 3815
179 561 1 660 -5 1019 -65 238 -40 296 -70 345 -179 38 -84 23 -173 -56 -323
-27 -51 -68 -103 -144 -183 -151 -156 -225 -277 -307 -499 -61 -167 -73 -255
-35 -269 8 -3 45 12 82 34 51 30 82 41 129 46 l62 7 -10 -29 c-5 -16 -16 -153
-24 -304 -12 -238 -12 -285 1 -345 8 -39 18 -71 24 -73 5 -2 9 -23 9 -46 0
-23 5 -47 11 -53 6 -6 15 -26 19 -45 l8 -33 1 35 c1 19 5 51 10 70 6 19 12
105 15 192 5 160 12 208 27 208 5 0 9 9 9 20 0 11 5 20 10 20 6 0 10 9 10 20
0 11 6 20 14 20 19 0 38 33 66 110 20 55 23 81 21 165 -1 55 -7 102 -12 106
-16 9 39 56 100 86 50 25 66 28 161 28 81 0 122 -5 178 -23 65 -21 83 -32 156
-101 67 -62 93 -80 132 -90 53 -13 106 -37 169 -76 49 -31 85 -29 102 5 20 40
16 195 -7 286 -44 173 -133 316 -304 489 -134 136 -182 204 -226 316 -50 130
-40 215 36 299 51 57 77 68 217 95 326 63 666 89 1052 81 2057 -46 4046 -175
5799 -376 291 -34 333 -32 441 19 80 37 139 96 176 176 32 67 26 23 125 991
l6 62 44 6 c141 19 280 146 318 291 24 90 149 1344 143 1432 -11 155 -119 296
-267 348 -92 33 -1977 207 -3180 295 -961 69 -2245 137 -2695 143 -145 1 -165
-1 -215 -21 -30 -12 -66 -31 -79 -41 -23 -18 -24 -18 -80 16 -108 65 -90 64
-807 61 l-649 -3 -62 -23 -62 -23 -38 19 c-21 11 -63 24 -93 30 -89 17 -1783
25 -1841 9z m1541 -702 c0 -173 3 -225 13 -226 10 0 10 -2 0 -6 -8 -3 -13 -25
-13 -59 l0 -54 -290 0 -290 0 0 -130 0 -130 195 -1 c217 -2 205 -1 224 -13 11
-7 13 -5 7 9 -5 15 -4 16 9 5 17 -14 21 -35 5 -25 -6 4 -10 -10 -10 -34 l0
-41 60 0 60 0 1 -42 1 -43 11 43 c5 23 15 42 22 42 14 0 30 -297 23 -453 -3
-96 -8 -90 72 -87 52 2 53 4 69 76 7 30 17 54 22 54 6 0 9 8 7 18 -2 10 2 16
11 14 11 -2 12 0 3 10 -11 14 -6 53 9 73 4 6 10 31 14 58 4 26 12 47 18 47 6
0 7 3 4 7 -9 9 33 53 50 53 10 0 9 6 -5 20 -15 16 -22 55 -12 68 2 1 3 5 4 10
1 4 9 21 19 39 9 17 14 40 11 50 -5 17 -5 17 9 1 11 -14 30 -18 90 -18 50 0
77 -4 79 -12 3 -7 7 -6 11 5 3 9 2 17 -3 17 -6 0 -10 8 -10 18 0 14 2 15 10 2
8 -13 10 -12 11 5 1 11 1 29 0 40 -2 17 0 17 8 5 9 -12 11 -10 12 10 1 14 1
38 0 54 -1 18 7 38 20 52 12 12 18 27 15 32 -3 6 -1 12 5 14 6 2 11 20 12 40
0 20 4 35 8 32 4 -2 9 9 12 24 10 52 18 86 23 94 3 4 7 16 9 25 2 10 18 64 35
121 17 57 28 107 25 112 -3 4 -1 10 4 12 6 1 12 14 14 28 3 14 9 36 15 50 19
52 24 82 10 75 -7 -4 -4 0 6 9 17 13 67 15 400 10 355 -4 494 -9 503 -18 2 -2
16 -52 30 -110 21 -83 30 -105 41 -101 12 4 13 3 3 -9 -12 -15 -7 -54 15 -131
4 -11 8 -35 11 -52 3 -18 9 -33 14 -33 5 0 6 -6 3 -14 -3 -8 2 -30 11 -50 9
-19 14 -39 11 -45 -3 -5 -1 -22 5 -38 7 -15 13 -39 14 -53 1 -14 3 -26 4 -27
0 -2 1 -6 0 -9 0 -4 4 -10 11 -14 6 -4 12 -17 13 -28 1 -12 4 -22 7 -22 6 0 8
-13 10 -75 1 -19 6 -32 11 -29 9 5 13 -19 11 -61 0 -11 2 -14 4 -7 4 8 31 12
86 12 50 0 84 -5 92 -12 19 -20 38 -82 26 -86 -15 -5 -12 -22 5 -22 8 0 15 -4
15 -10 0 -5 -7 -10 -15 -10 -8 0 -15 -5 -15 -11 0 -5 5 -7 10 -4 6 3 10 1 10
-5 0 -6 7 -19 16 -27 8 -9 13 -24 11 -34 -3 -11 -2 -19 3 -19 4 0 10 -19 14
-41 8 -52 18 -44 22 18 4 68 5 70 31 65 18 -3 23 0 23 17 0 14 -6 21 -19 21
-23 0 -31 29 -21 76 10 44 18 53 30 34 7 -10 10 9 10 58 l0 72 79 0 78 0 7
108 c3 59 9 158 12 221 5 84 4 112 -5 107 -8 -5 -8 0 0 21 6 15 15 100 20 187
5 88 13 162 18 165 5 4 27 5 48 3 21 -2 138 -9 261 -16 176 -9 225 -15 232
-26 5 -8 22 -43 37 -77 15 -34 32 -63 36 -63 5 0 5 5 1 12 -5 7 -3 8 5 3 9 -5
9 -11 3 -17 -13 -13 -4 -40 11 -31 6 3 7 1 3 -5 -4 -7 -1 -24 7 -39 8 -16 27
-55 42 -88 16 -33 36 -66 44 -73 9 -8 11 -11 4 -7 -8 4 -8 -3 2 -22 8 -15 15
-33 15 -39 0 -7 7 -11 16 -10 9 0 18 -7 19 -17 2 -9 -1 -15 -6 -11 -17 10 -9
-13 16 -50 14 -20 25 -42 25 -49 1 -18 39 -84 40 -68 0 8 6 11 16 7 15 -6 16
1 10 59 -4 40 -3 65 3 65 6 0 8 17 6 37 -2 21 1 78 5 128 5 49 11 146 14 214
3 68 8 126 11 129 5 5 427 -11 658 -25 l98 -6 -5 -36 c-5 -33 -13 -223 -22
-516 -2 -85 0 -122 9 -127 8 -5 6 -8 -5 -8 -11 0 -18 -8 -18 -20 0 -11 5 -20
10 -20 6 0 10 -9 10 -20 0 -18 7 -20 59 -20 69 0 92 16 89 61 -1 16 -6 29 -11
29 -4 0 -5 5 -2 10 3 6 1 10 -5 10 -7 0 -10 -7 -6 -15 4 -12 -3 -15 -34 -15
-42 0 -47 8 -34 58 5 18 13 22 45 22 39 0 52 10 55 45 15 167 25 373 21 402
-4 25 -3 33 3 23 6 -10 10 8 12 55 l3 70 120 -2 c66 -1 158 -5 205 -8 47 -3
125 -8 174 -10 49 -3 91 -7 94 -10 3 -3 35 -5 71 -5 36 0 77 -3 90 -7 22 -6
23 -9 16 -68 -3 -35 -8 -114 -10 -176 -2 -63 -7 -125 -9 -139 -3 -14 -9 -93
-12 -177 l-6 -153 86 0 86 0 1 28 c1 15 2 48 3 74 1 26 -1 45 -6 42 -4 -3 -8
0 -8 5 0 6 5 11 11 11 8 0 7 5 -2 16 -10 13 -10 17 1 24 9 6 14 31 14 77 1 37
4 70 8 73 3 3 9 70 11 148 3 79 8 146 11 149 3 3 3 17 0 29 -5 19 -2 24 12 25
26 1 81 -2 129 -7 22 -3 101 -9 175 -14 74 -5 149 -11 165 -12 17 -1 37 2 44
6 9 6 12 5 8 -1 -5 -7 12 -11 46 -12 28 -1 61 -3 72 -5 11 -3 44 -5 73 -5 l53
-1 -6 -127 c-3 -71 -8 -144 -11 -164 -3 -21 -1 -47 6 -59 9 -16 9 -20 1 -15
-8 5 -10 -1 -6 -18 4 -14 2 -28 -5 -32 -6 -4 -10 -30 -9 -63 1 -32 0 -61 -1
-67 -1 -5 -2 -22 -1 -37 1 -26 4 -28 41 -28 22 0 40 -4 40 -10 0 -14 59 -12
73 3 7 6 13 26 15 42 7 83 7 105 -3 105 -6 0 -6 3 1 8 13 8 35 124 22 116 -4
-3 -8 0 -8 5 0 6 4 11 9 11 8 0 23 121 26 213 1 26 4 49 6 52 11 10 174 4 217
-9 15 -4 147 -18 298 -31 57 -5 136 -14 174 -20 14 -2 66 -7 115 -10 50 -4
101 -8 115 -10 64 -10 312 -36 376 -39 39 -1 76 -6 82 -10 6 -4 26 -6 44 -5
18 0 51 -2 73 -5 22 -3 61 -8 87 -10 57 -4 86 -22 64 -40 -16 -11 -38 -183
-32 -238 2 -16 0 -28 -3 -28 -3 0 -7 -41 -9 -90 -2 -50 1 -90 6 -90 5 0 8 20
7 45 l-2 46 86 -3 86 -3 -2 -50 c-1 -27 -3 -67 -3 -89 0 -21 -3 -43 -7 -49 -4
-7 -8 -30 -9 -52 -1 -22 -5 -56 -9 -75 -4 -19 -6 -53 -6 -75 1 -22 -6 -105
-14 -184 -8 -79 -15 -146 -15 -150 0 -3 -43 -2 -95 3 -52 5 -93 12 -91 15 2 3
-47 7 -109 9 l-112 3 -12 -113 c-7 -62 -12 -126 -12 -141 1 -16 -2 -26 -7 -23
-5 3 -7 -7 -5 -22 4 -29 -94 -1002 -101 -1010 -6 -5 -1197 116 -1204 123 -3 2
0 55 7 117 36 359 83 810 101 986 12 112 19 206 16 210 -3 3 -23 7 -44 9 -20
2 -55 5 -77 7 -26 3 -47 -1 -60 -11 -16 -13 -17 -15 -2 -10 17 6 23 -4 10 -17
-4 -4 -6 -24 -5 -44 2 -20 -1 -32 -5 -26 -4 7 -9 -16 -9 -50 -1 -35 -9 -89
-18 -122 -8 -32 -20 -78 -26 -102 -7 -27 -15 -40 -22 -36 -6 4 -8 3 -4 -4 12
-20 -65 -209 -127 -307 -144 -230 -352 -396 -594 -474 -149 -48 -340 -52 -498
-11 -221 57 -454 220 -577 404 l-26 38 -6 -43 c-3 -24 -8 -115 -12 -203 l-6
-158 -62 6 c-33 3 -235 13 -448 23 l-386 17 -16 31 c-14 28 -15 28 -15 7 -1
-24 -1 -24 -93 -18 -301 21 -976 46 -1374 52 l-461 7 -42 181 c-24 99 -43 182
-44 182 -1 1 -51 3 -111 5 l-110 4 -51 -180 -51 -180 -132 0 c-73 0 -609 1
-1192 3 l-1060 2 0 469 c0 310 -3 472 -10 476 -6 4 -9 2 -8 -3 6 -20 -108
-113 -185 -152 -98 -50 -165 -67 -297 -76 -58 -4 -108 -11 -111 -16 -3 -5 -2
-32 2 -61 11 -81 33 -636 25 -645 -4 -4 -252 -18 -551 -32 l-544 -25 -5 60
c-8 86 -41 831 -52 1159 -2 71 -6 132 -9 134 -3 3 0 11 6 18 5 7 6 14 2 17 -5
3 -7 49 -6 101 1 60 -2 94 -7 91 -6 -4 -10 11 -10 34 l0 41 86 0 c75 0 85 -2
80 -16 -9 -23 -17 -72 -10 -54 4 8 13 18 20 22 6 5 10 17 7 28 -3 11 0 20 6
20 7 0 11 21 11 56 0 45 -3 55 -15 51 -8 -4 -17 -1 -21 5 -4 6 -3 8 4 4 15 -9
23 63 17 139 -3 33 -5 68 -6 78 0 9 -5 17 -10 17 -6 0 -5 9 2 22 7 14 9 51 6
107 -3 47 -8 137 -11 199 l-5 112 52 0 c29 0 183 7 342 15 356 19 675 19 770
0 102 -20 179 -56 226 -107 9 -10 21 -18 26 -18 5 0 15 -10 22 -22 19 -38 62
-93 69 -90 4 1 7 -6 8 -17 1 -24 13 -43 24 -36 4 3 6 -4 3 -15 -3 -11 -1 -20
5 -20 5 0 13 -16 16 -35 4 -19 10 -35 15 -35 4 0 8 -6 8 -12 0 -7 6 -33 12
-58 7 -25 13 -56 15 -70 10 -78 18 -179 18 -221 0 -47 1 -49 29 -49 16 0 29
-4 29 -10 0 -15 57 -12 63 3 3 6 6 -7 6 -30 1 -36 4 -43 21 -43 20 0 20 7 20
465 l0 465 630 0 630 0 0 -225z m-4897 13 c20 0 25 -3 15 -9 -10 -7 -9 -9 5
-9 19 0 58 -19 68 -34 4 -5 12 -5 18 -2 6 4 10 4 9 -1 -2 -5 15 -27 37 -49 22
-22 51 -55 65 -73 14 -18 31 -39 38 -47 7 -8 11 -14 8 -14 -3 0 3 -15 13 -32
10 -18 24 -32 30 -30 6 1 11 -2 11 -8 0 -5 -5 -10 -10 -10 -7 0 -6 -8 2 -22 7
-13 11 -29 10 -35 -2 -7 2 -13 9 -13 6 0 9 -7 5 -15 -3 -8 -1 -15 3 -15 5 0 9
-10 10 -22 1 -51 4 -58 28 -58 13 0 23 -5 23 -11 0 -6 -6 -9 -13 -6 -16 6 -21
-97 -8 -153 l9 -35 1 33 1 32 85 0 85 0 0 -82 c0 -57 -3 -78 -10 -68 -8 13
-10 12 -10 -2 0 -10 6 -18 13 -18 7 0 8 -3 2 -8 -5 -4 -10 -20 -10 -37 0 -22
-4 -30 -17 -29 -10 1 -18 -2 -18 -7 0 -5 4 -9 9 -9 5 0 11 -8 13 -17 6 -24
-10 -83 -23 -83 -6 0 -7 -5 -4 -10 9 -14 -26 -111 -42 -117 -7 -3 -13 -13 -13
-22 0 -24 -11 -33 -25 -21 -8 7 -12 5 -12 -5 0 -8 4 -12 9 -9 15 10 8 -7 -18
-41 -19 -26 -24 -40 -18 -57 4 -13 9 -26 10 -30 1 -5 3 -11 4 -15 1 -5 2 -12
1 -16 -1 -5 2 -6 7 -3 8 4 51 -71 48 -84 0 -3 9 -18 21 -34 13 -16 20 -32 17
-37 -9 -16 4 -10 61 27 92 58 163 76 280 71 95 -5 165 -22 165 -40 0 -4 4 -6
9 -3 14 9 93 -48 147 -106 137 -145 168 -353 79 -534 -84 -172 -253 -272 -443
-261 -58 3 -404 -22 -1045 -74 -526 -44 -963 -79 -971 -79 -10 0 -16 44 -26
180 -10 138 -17 183 -28 193 -10 7 -13 7 -9 1 4 -6 -16 -43 -43 -82 -140 -199
-333 -318 -597 -366 -92 -17 -1003 -120 -1009 -114 -9 9 -116 1019 -112 1050
3 15 2 25 -2 23 -9 -5 -44 330 -36 350 3 9 2 14 -2 11 -8 -5 -31 177 -38 294
-1 25 -5 65 -10 89 -5 32 -3 45 7 51 11 7 10 10 -4 16 -11 4 -17 17 -17 38 l1
31 15 -25 c15 -24 15 -21 0 27 -4 12 -2 24 4 28 5 3 10 2 10 -4 0 -5 33 -11
73 -13 l72 -3 1 45 c1 25 -1 37 -3 28 -3 -10 -9 -18 -15 -18 -10 0 -8 21 5 78
3 12 2 22 -2 22 -4 0 -8 7 -8 15 0 8 4 12 8 9 4 -2 7 5 6 16 -1 11 -4 20 -7
20 -3 0 -7 34 -8 76 -1 42 -5 86 -8 98 -6 18 -8 51 -5 86 1 6 27 10 59 11 31
0 82 5 112 10 30 5 78 11 105 13 64 6 166 18 185 21 8 2 47 6 85 9 39 4 90 9
115 13 68 8 339 9 333 1 -2 -5 7 -8 22 -8 14 0 42 -7 62 -15 20 -9 43 -13 50
-10 8 2 12 1 9 -4 -6 -9 36 -31 58 -31 8 0 17 -7 20 -16 4 -9 13 -14 22 -10 8
3 12 2 9 -4 -3 -6 0 -10 7 -10 7 0 22 -11 32 -25 10 -13 22 -22 27 -19 5 3 9
0 9 -7 0 -18 65 -76 80 -71 9 3 11 -1 7 -11 -4 -10 1 -18 14 -22 10 -4 19 -15
19 -25 0 -9 9 -20 20 -23 13 -3 18 -11 14 -20 -3 -10 2 -18 17 -22 15 -5 18
-10 9 -15 -9 -5 -6 -12 9 -22 12 -9 21 -19 19 -24 -2 -5 0 -9 3 -9 3 0 13 -6
22 -14 19 -15 23 -36 6 -25 -7 4 -9 2 -5 -7 3 -8 9 -22 12 -31 4 -10 10 -18
15 -18 5 0 8 -5 6 -11 -1 -6 3 -13 10 -16 7 -3 9 3 6 16 -4 17 -1 21 21 21 19
0 26 5 26 20 0 18 7 20 79 20 79 0 80 0 84 -27 7 -46 -3 133 -14 257 -14 162
-20 237 -22 299 -2 63 -27 54 188 66 72 4 131 10 132 14 2 3 26 4 54 2 36 -2
54 1 60 10 6 9 9 10 9 2 0 -8 9 -9 28 -5 15 4 44 7 65 7 20 0 37 2 37 5 0 3
15 4 33 3 17 -2 82 1 142 6 89 7 287 7 488 -1z m8037 -168 c0 -5 -2 -10 -4
-10 -3 0 -8 5 -11 10 -3 6 -1 10 4 10 6 0 11 -4 11 -10z m-1316 -161 c-8 -14
-24 -10 -24 6 0 9 6 12 15 9 8 -4 12 -10 9 -15z m396 -14 c0 -9 -6 -12 -16 -8
-13 5 -13 7 -2 14 17 11 18 11 18 -6z m2020 -19 c0 -3 -4 -8 -10 -11 -5 -3
-10 -1 -10 4 0 6 5 11 10 11 6 0 10 -2 10 -4z m1914 -31 c-4 -8 -8 -15 -10
-15 -2 0 -4 7 -4 15 0 8 4 15 10 15 5 0 7 -7 4 -15z m-5740 -20 c-4 -8 -10
-15 -15 -15 -4 0 -6 7 -3 15 4 8 10 15 15 15 4 0 6 -7 3 -15z m1586 -29 c0 -3
-4 -8 -10 -11 -5 -3 -10 -1 -10 4 0 6 5 11 10 11 6 0 10 -2 10 -4z m-10060
-36 c0 -5 -2 -10 -4 -10 -3 0 -8 5 -11 10 -3 6 -1 10 4 10 6 0 11 -4 11 -10z
m4837 -27 c-3 -10 -5 -4 -5 12 0 17 2 24 5 18 2 -7 2 -21 0 -30z m-3157 0 c0
-16 -5 -35 -11 -43 -8 -13 -9 -13 -7 2 2 9 -6 24 -17 33 -11 9 -14 13 -6 9 11
-5 13 -3 8 9 -5 12 -1 17 13 17 15 0 20 -7 20 -27z m2030 -13 c0 -21 -25 -4
-28 20 -4 21 -2 22 12 7 9 -8 16 -21 16 -27z m4547 -12 c-2 -13 -4 -5 -4 17
-1 22 1 32 4 23 2 -10 2 -28 0 -40z m-8257 22 c0 -5 -4 -10 -10 -10 -5 0 -10
5 -10 10 0 6 5 10 10 10 6 0 10 -4 10 -10z m16063 -4 c3 -8 0 -17 -7 -19 -10
-4 -12 1 -9 14 6 23 9 24 16 5z m-7630 -11 c-3 -9 -8 -14 -10 -11 -3 3 -2 9 2
15 9 16 15 13 8 -4z m1834 -7 c-3 -8 -6 -5 -6 6 -1 11 2 17 5 13 3 -3 4 -12 1
-19z m1927 -20 c-8 -13 -31 -9 -37 6 -3 8 -3 16 0 19 8 8 43 -16 37 -25z
m-2097 -1 c-2 -7 0 -21 6 -32 7 -16 7 -18 -3 -8 -15 14 -23 66 -9 57 6 -3 8
-11 6 -17z m-10087 -81 c0 -39 -6 -30 -13 19 -4 27 -3 35 3 25 5 -8 10 -28 10
-44z m16047 7 c-3 -10 -5 -4 -5 12 0 17 2 24 5 18 2 -7 2 -21 0 -30z m-5970
-15 c-3 -8 -6 -5 -6 6 -1 11 2 17 5 13 3 -3 4 -12 1 -19z m-130 -50 c-3 -8 -6
-5 -6 6 -1 11 2 17 5 13 3 -3 4 -12 1 -19z m175 -3 c3 -13 1 -22 -3 -19 -9 5
-13 44 -5 44 2 0 6 -11 8 -25z"/>
<path d="M7304 7201 c-8 -9 -4 -51 6 -51 6 0 10 -5 10 -11 0 -5 -5 -7 -10 -4
-8 5 -9 -30 -4 -112 3 -65 6 -124 7 -130 0 -9 23 -13 79 -13 76 0 78 -1 68
-20 -9 -17 -8 -20 9 -20 14 0 19 5 14 16 -4 10 1 17 16 21 18 5 21 13 23 62 2
74 -3 144 -10 156 -4 6 -7 16 -9 24 -3 23 -56 70 -83 75 -14 2 -26 5 -27 6 -6
4 -85 5 -89 1z"/>
<path d="M10175 7020 c-3 -5 -1 -10 4 -10 6 0 11 5 11 10 0 6 -2 10 -4 10 -3
0 -8 -4 -11 -10z"/>
<path d="M12920 6965 c0 -14 4 -25 9 -25 5 0 9 11 9 25 0 14 -4 25 -9 25 -5 0
-9 -11 -9 -25z"/>
<path d="M13851 6974 c0 -11 3 -14 6 -6 3 7 2 16 -1 19 -3 4 -6 -2 -5 -13z"/>
<path d="M10747 6883 c-11 -10 -8 -35 3 -28 6 3 10 0 10 -8 0 -8 7 -21 17 -28
15 -13 15 -12 1 16 -8 17 -13 36 -11 43 5 13 -9 17 -20 5z"/>
<path d="M9452 6850 c0 -14 2 -19 5 -12 2 6 2 18 0 25 -3 6 -5 1 -5 -13z"/>
<path d="M6440 6820 c0 -11 5 -20 10 -20 6 0 10 9 10 20 0 11 -4 20 -10 20 -5
0 -10 -9 -10 -20z"/>
<path d="M10730 6830 c0 -5 5 -10 11 -10 5 0 7 5 4 10 -3 6 -8 10 -11 10 -2 0
-4 -4 -4 -10z"/>
<path d="M15593 6808 c0 -18 2 -27 5 -20 2 6 12 12 23 12 12 0 19 7 19 20 0
14 -7 20 -23 20 -20 0 -24 -5 -24 -32z"/>
<path d="M13730 6808 c0 -9 5 -20 10 -23 13 -8 13 5 0 25 -8 13 -10 13 -10 -2z"/>
<path d="M8186 6801 c-8 -12 3 -41 15 -41 5 0 4 -10 0 -22 -5 -13 -14 -22 -19
-21 -6 1 -7 -7 -4 -20 5 -17 7 -18 10 -6 2 10 12 19 23 22 21 6 18 28 -8 59
-8 9 -12 22 -8 27 3 6 4 11 1 11 -3 0 -7 -4 -10 -9z"/>
<path d="M10770 6785 c13 -14 26 -23 28 -20 7 7 -29 45 -41 45 -6 0 0 -11 13
-25z"/>
<path d="M11963 6755 c0 -8 6 -16 14 -19 11 -4 11 -1 3 14 -13 24 -17 25 -17
5z"/>
<path d="M15591 6763 c0 -6 -4 -20 -7 -30 -5 -14 -4 -15 5 -7 7 7 11 20 8 30
-3 11 -5 14 -6 7z"/>
<path d="M17417 6748 c-9 -31 -2 -33 17 -3 13 20 14 25 2 25 -7 0 -16 -10 -19
-22z"/>
<path d="M7368 6747 c20 -6 36 -6 42 -1 5 5 -8 10 -33 10 l-42 2 33 -11z"/>
<path d="M13701 6744 c0 -11 3 -14 6 -6 3 7 2 16 -1 19 -3 4 -6 -2 -5 -13z"/>
<path d="M6425 6740 c3 -5 8 -10 11 -10 2 0 4 5 4 10 0 6 -5 10 -11 10 -5 0
-7 -4 -4 -10z"/>
<path d="M15729 6733 c-10 -11 -10 -14 -1 -9 6 4 12 3 12 -3 0 -5 -4 -13 -10
-16 -5 -3 -9 -14 -9 -23 1 -15 2 -15 6 1 2 9 8 15 12 13 4 -3 7 8 7 25 0 34 0
34 -17 12z"/>
<path d="M11681 6724 c0 -11 3 -14 6 -6 3 7 2 16 -1 19 -3 4 -6 -2 -5 -13z"/>
<path d="M10086 6717 c3 -10 9 -15 12 -12 3 3 0 11 -7 18 -10 9 -11 8 -5 -6z"/>
<path d="M10800 6720 c0 -5 5 -10 11 -10 5 0 7 5 4 10 -3 6 -8 10 -11 10 -2 0
-4 -4 -4 -10z"/>
<path d="M11960 6698 c0 -19 2 -20 10 -8 13 19 13 30 0 30 -5 0 -10 -10 -10
-22z"/>
<path d="M8212 6691 c2 -7 7 -12 11 -12 12 1 9 15 -3 20 -7 2 -11 -2 -8 -8z"/>
<path d="M15580 6689 c0 -5 5 -7 10 -4 6 3 10 8 10 11 0 2 -4 4 -10 4 -5 0
-10 -5 -10 -11z"/>
<path d="M10800 6681 c0 -6 4 -13 10 -16 6 -3 7 1 4 9 -7 18 -14 21 -14 7z"/>
<path d="M17561 6674 c0 -11 3 -14 6 -6 3 7 2 16 -1 19 -3 4 -6 -2 -5 -13z"/>
<path d="M11547 6659 c-7 -27 20 -70 39 -62 23 9 17 43 -7 43 -16 0 -20 5 -16
20 3 11 2 20 -3 20 -4 0 -10 -10 -13 -21z"/>
<path d="M14631 6664 c0 -11 3 -14 6 -6 3 7 2 16 -1 19 -3 4 -6 -2 -5 -13z"/>
<path d="M17520 6660 c0 -19 3 -21 12 -12 9 9 9 15 0 24 -9 9 -12 7 -12 -12z"/>
<path d="M10695 6649 c-4 -6 -5 -12 -2 -15 2 -3 7 2 10 11 7 17 1 20 -8 4z"/>
<path d="M15726 6648 c-6 -18 -4 -49 2 -43 6 6 10 55 5 55 -2 0 -5 -6 -7 -12z"/>
<path d="M9607 6643 c-11 -10 -8 -143 3 -143 6 0 10 32 10 75 0 75 -1 81 -13
68z"/>
<path d="M14766 6627 c-7 -27 1 -35 18 -16 12 12 12 16 1 26 -10 9 -14 7 -19
-10z"/>
<path d="M15583 6615 c0 -22 2 -30 4 -17 2 12 2 30 0 40 -3 9 -5 -1 -4 -23z"/>
<path d="M6425 6630 c-3 -5 -1 -10 4 -10 6 0 11 5 11 10 0 6 -2 10 -4 10 -3 0
-8 -4 -11 -10z"/>
<path d="M10050 6626 c0 -8 4 -17 9 -20 5 -4 7 3 4 14 -6 23 -13 26 -13 6z"/>
<path d="M11920 6620 c0 -5 5 -10 10 -10 6 0 10 5 10 10 0 6 -4 10 -10 10 -5
0 -10 -4 -10 -10z"/>
<path d="M11966 6613 c-6 -14 -5 -15 5 -6 7 7 10 15 7 18 -3 3 -9 -2 -12 -12z"/>
<path d="M14623 6615 c0 -8 4 -12 9 -9 5 3 6 10 3 15 -9 13 -12 11 -12 -6z"/>
<path d="M8145 6609 c-4 -6 -5 -12 -2 -15 2 -3 7 2 10 11 7 17 1 20 -8 4z"/>
<path d="M10845 6520 c3 -5 8 -10 11 -10 2 0 4 5 4 10 0 6 -5 10 -11 10 -5 0
-7 -4 -4 -10z"/>
<path d="M11586 6493 c-6 -14 -5 -15 5 -6 7 7 10 15 7 18 -3 3 -9 -2 -12 -12z"/>
<path d="M15995 6490 c3 -5 8 -10 11 -10 2 0 4 5 4 10 0 6 -5 10 -11 10 -5 0
-7 -4 -4 -10z"/>
<path d="M10646 6473 c-6 -14 -5 -15 5 -6 7 7 10 15 7 18 -3 3 -9 -2 -12 -12z"/>
<path d="M11960 6480 c0 -5 5 -10 11 -10 5 0 7 5 4 10 -3 6 -8 10 -11 10 -2 0
-4 -4 -4 -10z"/>
<path d="M14760 6481 c0 -6 4 -13 10 -16 6 -3 7 1 4 9 -7 18 -14 21 -14 7z"/>
<path d="M10006 6467 c3 -10 9 -15 12 -12 3 3 0 11 -7 18 -10 9 -11 8 -5 -6z"/>
<path d="M16120 6445 c0 -8 2 -15 4 -15 2 0 6 7 10 15 3 8 1 15 -4 15 -6 0
-10 -7 -10 -15z"/>
<path d="M8060 6425 c-5 -14 -14 -25 -20 -25 -6 0 -8 -5 -5 -10 10 -16 32 5
38 35 6 32 -1 32 -13 0z"/>
<path d="M9461 6374 c0 -11 3 -14 6 -6 3 7 2 16 -1 19 -3 4 -6 -2 -5 -13z"/>
<path d="M17046 6372 c-3 -5 1 -9 9 -9 8 0 12 4 9 9 -3 4 -7 8 -9 8 -2 0 -6
-4 -9 -8z"/>
<path d="M17108 6373 c7 -3 16 -2 19 1 4 3 -2 6 -13 5 -11 0 -14 -3 -6 -6z"/>
<path d="M17178 6373 c7 -3 16 -2 19 1 4 3 -2 6 -13 5 -11 0 -14 -3 -6 -6z"/>
<path d="M9960 6341 c0 -6 4 -13 10 -16 6 -3 7 1 4 9 -7 18 -14 21 -14 7z"/>
<path d="M4231 7041 c-8 -5 -15 -28 -17 -52 -1 -24 1 -37 5 -30 6 10 10 9 15
-4 8 -23 8 -27 -4 -20 -5 3 -10 -3 -10 -14 0 -10 6 -22 13 -25 9 -5 9 -7 -1
-12 -6 -3 -9 -11 -5 -17 4 -7 7 -23 8 -37 0 -18 6 -26 23 -28 17 -3 22 2 22
17 0 14 6 21 20 21 22 0 29 35 8 43 -7 3 11 3 40 0 l54 -5 -4 28 c-2 16 -8 28
-15 27 -7 -2 -10 3 -7 11 9 22 -14 56 -39 57 -12 0 -16 3 -9 6 9 3 6 9 -10 18
-37 19 -72 25 -87 16z m9 -21 c0 -5 -5 -10 -11 -10 -5 0 -7 5 -4 10 3 6 8 10
11 10 2 0 4 -4 4 -10z m90 -110 c-18 -12 -30 -13 -30 -2 0 4 10 9 22 9 18 2
20 0 8 -7z m27 -12 c-3 -8 -6 -5 -6 6 -1 11 2 17 5 13 3 -3 4 -12 1 -19z"/>
<path d="M3526 6787 c3 -10 9 -15 12 -12 3 3 0 11 -7 18 -10 9 -11 8 -5 -6z"/>
<path d="M5102 6735 c4 -4 1 -14 -7 -22 -19 -19 -20 -40 -2 -24 8 6 17 8 20 4
4 -3 7 3 7 15 0 11 -6 24 -12 28 -7 4 -10 4 -6 -1z"/>
<path d="M3524 6676 c0 -29 6 -58 13 -65 9 -8 10 -1 6 32 -3 23 -6 52 -6 65 1
12 -3 22 -7 22 -4 0 -7 -24 -6 -54z"/>
<path d="M4370 6722 c0 -4 4 -13 9 -20 7 -11 9 -11 14 1 3 9 -1 18 -9 21 -8 3
-14 2 -14 -2z"/>
<path d="M5235 6720 c-3 -5 -1 -10 5 -10 6 0 8 -5 4 -12 -4 -7 -3 -8 4 -4 6 4
9 13 5 21 -6 18 -10 19 -18 5z"/>
<path d="M3340 6701 c0 -6 5 -13 10 -16 6 -3 10 1 10 9 0 9 -4 16 -10 16 -5 0
-10 -4 -10 -9z"/>
<path d="M4320 6671 c0 -6 9 -9 19 -8 11 0 17 5 15 9 -7 11 -34 10 -34 -1z"/>
<path d="M5245 6670 c-3 -5 -1 -10 4 -10 6 0 11 5 11 10 0 6 -2 10 -4 10 -3 0
-8 -4 -11 -10z"/>
<path d="M1763 6640 c1 -11 5 -20 9 -20 11 0 10 28 -1 35 -6 3 -9 -4 -8 -15z"/>
<path d="M3382 6585 c0 -16 2 -22 5 -12 2 9 2 23 0 30 -3 6 -5 -1 -5 -18z"/>
<path d="M5063 6585 c0 -8 4 -12 9 -9 5 3 6 10 3 15 -9 13 -12 11 -12 -6z"/>
<path d="M5090 6570 c0 -5 4 -10 9 -10 6 0 13 5 16 10 3 6 -1 10 -9 10 -9 0
-16 -4 -16 -10z"/>
<path d="M5061 6534 c0 -11 3 -14 6 -6 3 7 2 16 -1 19 -3 4 -6 -2 -5 -13z"/>
<path d="M2495 6479 c-11 -17 1 -21 15 -4 8 9 8 15 2 15 -6 0 -14 -5 -17 -11z"/>
<path d="M3431 6424 c0 -11 3 -14 6 -6 3 7 2 16 -1 19 -3 4 -6 -2 -5 -13z"/>
<path d="M17856 5595 c-55 -19 -87 -45 -113 -91 -80 -141 17 -314 177 -314
125 0 209 84 210 209 0 94 -61 176 -151 201 -45 13 -76 12 -123 -5z m131 -36
c59 -22 112 -99 113 -163 0 -46 -38 -115 -79 -141 -113 -75 -258 -5 -269 128
-9 127 116 221 235 176z"/>
<path d="M17830 5396 c0 -109 1 -116 20 -116 17 0 20 7 20 50 0 39 3 50 16 50
19 0 70 -52 79 -81 4 -12 15 -19 31 -19 l25 0 -18 31 c-10 17 -25 38 -34 47
-15 16 -15 19 8 38 16 13 26 30 26 48 0 45 -25 60 -103 64 l-70 4 0 -116z
m121 65 c20 -16 21 -21 10 -35 -8 -10 -29 -16 -52 -16 -38 0 -39 1 -39 35 0
32 3 35 29 35 16 0 39 -8 52 -19z"/>
</g>
</svg>
